<svg version="1.1" id="Layer_1" xmlns="http://www.w3.org/2000/svg" xmlns:xlink="http://www.w3.org/1999/xlink" x="0px" y="0px"
	 width="100%" viewBox="0 0 2000 602" enable-background="new 0 0 2000 602" xml:space="preserve">
<path fill="#000000" opacity="1.000000" stroke="none" 
	d="
M746.000000,603.000000 
	C497.686493,603.000000 249.373001,603.000000 1.029752,603.000000 
	C1.029752,402.369202 1.029752,201.738388 1.029752,1.099428 
	C1.130792,1.071724 1.261583,1.004423 1.392375,1.004422 
	C667.839111,0.999994 1334.285889,1.000000 2000.866333,1.000000 
	C2000.866333,201.561447 2000.866333,402.123016 2000.866333,603.000000 
	C1625.635742,603.000000 1250.271484,603.000000 874.125549,602.642029 
	C874.694580,601.856201 876.022705,601.165588 877.400024,601.047058 
	C882.651611,600.595215 887.964478,600.654175 893.172119,599.930237 
	C908.679260,597.774597 924.215027,595.711182 939.614380,592.920776 
	C960.397095,589.154968 981.225830,585.417664 1001.740784,580.453308 
	C1031.661499,573.212952 1061.070557,564.183838 1089.893188,553.175659 
	C1116.432129,543.039612 1142.432983,531.860046 1167.681641,518.821350 
	C1193.746826,505.360901 1218.635010,490.030914 1242.343506,472.823059 
	C1252.164673,465.694672 1255.119385,453.777740 1243.964233,445.726166 
	C1237.139160,440.799927 1229.236450,442.380524 1221.946289,445.503448 
	C1192.584717,458.081268 1162.789307,469.512634 1132.090210,478.355865 
	C1106.723999,485.662872 1081.187256,492.393036 1055.647339,499.077515 
	C1026.026001,506.830200 995.914185,512.103516 965.560181,516.016296 
	C947.237671,518.378174 928.938721,520.984070 910.568481,522.896240 
	C896.166443,524.395325 881.680237,525.166626 867.214355,525.944580 
	C855.964417,526.549561 844.688965,526.891052 833.423462,526.927673 
	C824.659973,526.956177 815.895630,526.296936 807.129456,526.011353 
	C795.702454,525.639038 784.272400,525.363647 772.845459,524.990540 
	C764.081177,524.704407 755.317078,524.388428 746.558228,523.973450 
	C742.122986,523.763367 737.684631,523.435242 733.273438,522.934265 
	C719.301758,521.347351 705.333984,519.719543 691.380310,517.982117 
	C678.574707,516.387634 665.715881,515.052307 653.013306,512.840027 
	C636.545410,509.971985 620.108459,506.776184 603.838745,502.953369 
	C576.861206,496.614594 549.835144,490.343842 523.180054,482.805023 
	C486.236908,472.356476 450.018585,459.629333 414.769318,444.307709 
	C402.562988,439.002014 390.309845,433.765930 378.349854,427.940094 
	C357.591827,417.828583 337.022186,407.328369 316.422668,396.894196 
	C309.212158,393.241882 302.378876,388.744904 294.948608,385.654846 
	C287.622925,382.608307 280.352234,388.915253 282.198639,396.469452 
	C282.958740,399.579071 285.201965,402.760620 287.635101,404.947601 
	C295.802429,412.288696 304.190857,419.409332 312.804688,426.222382 
	C327.264343,437.659302 341.673431,449.195740 356.621887,459.971558 
	C385.417175,480.729095 415.587433,499.347870 447.174774,515.583740 
	C474.766937,529.766052 502.667175,543.370850 532.071228,553.418335 
	C557.338989,562.052490 582.715454,570.468689 608.372437,577.836853 
	C636.037903,585.781921 664.255249,591.562134 692.882874,595.039307 
	C709.605042,597.070312 726.341125,598.987671 743.056702,601.070923 
	C744.101685,601.201172 745.021790,602.333740 746.000000,603.000000 
M1226.257080,367.924255 
	C1222.866943,368.434509 1219.335815,368.502533 1216.110718,369.530548 
	C1201.168701,374.293396 1185.963623,378.496155 1171.553223,384.563507 
	C1162.765747,388.263458 1155.012695,394.672943 1147.324951,400.557587 
	C1145.374390,402.050690 1144.504761,406.294983 1144.822266,409.083344 
	C1145.248291,412.824890 1148.973755,413.262665 1152.237183,412.976105 
	C1163.025269,412.028717 1173.796631,410.887482 1184.588623,409.990204 
	C1201.461548,408.587311 1218.331055,406.591766 1235.230591,406.244720 
	C1247.480835,405.993164 1259.819092,407.653778 1272.041992,409.103638 
	C1284.352051,410.563904 1292.535156,417.224854 1292.861816,426.062866 
	C1293.153687,433.961914 1293.262695,442.087646 1291.780518,449.791656 
	C1287.058228,474.335632 1278.945679,497.925293 1269.960693,521.210876 
	C1266.119751,531.165405 1262.022095,541.032532 1258.605591,551.130371 
	C1257.817627,553.459412 1258.491089,557.339355 1260.065186,559.095154 
	C1261.463745,560.655273 1265.052246,560.639404 1267.658447,560.583923 
	C1269.211670,560.550842 1270.817871,559.224487 1272.258057,558.266113 
	C1282.651367,551.350159 1290.463013,541.802734 1297.912109,532.070496 
	C1310.614990,515.474121 1320.432007,497.192169 1327.761597,477.605957 
	C1338.202637,449.705383 1345.286377,421.173340 1344.016357,391.061493 
	C1343.615967,381.569489 1339.696411,376.419525 1330.628906,372.974335 
	C1313.580688,366.496948 1295.660278,365.192413 1277.765137,364.141235 
	C1269.385864,363.649048 1260.904907,364.476532 1252.493896,365.052856 
	C1243.989624,365.635559 1235.514526,366.647217 1226.257080,367.924255 
z"/>
<path fill="#FF9900" opacity="1.000000" stroke="none" 
	d="
M746.468628,603.000000 
	C745.021790,602.333740 744.101685,601.201172 743.056702,601.070923 
	C726.341125,598.987671 709.605042,597.070312 692.882874,595.039307 
	C664.255249,591.562134 636.037903,585.781921 608.372437,577.836853 
	C582.715454,570.468689 557.338989,562.052490 532.071228,553.418335 
	C502.667175,543.370850 474.766937,529.766052 447.174774,515.583740 
	C415.587433,499.347870 385.417175,480.729095 356.621887,459.971558 
	C341.673431,449.195740 327.264343,437.659302 312.804688,426.222382 
	C304.190857,419.409332 295.802429,412.288696 287.635101,404.947601 
	C285.201965,402.760620 282.958740,399.579071 282.198639,396.469452 
	C280.352234,388.915253 287.622925,382.608307 294.948608,385.654846 
	C302.378876,388.744904 309.212158,393.241882 316.422668,396.894196 
	C337.022186,407.328369 357.591827,417.828583 378.349854,427.940094 
	C390.309845,433.765930 402.562988,439.002014 414.769318,444.307709 
	C450.018585,459.629333 486.236908,472.356476 523.180054,482.805023 
	C549.835144,490.343842 576.861206,496.614594 603.838745,502.953369 
	C620.108459,506.776184 636.545410,509.971985 653.013306,512.840027 
	C665.715881,515.052307 678.574707,516.387634 691.380310,517.982117 
	C705.333984,519.719543 719.301758,521.347351 733.273438,522.934265 
	C737.684631,523.435242 742.122986,523.763367 746.558228,523.973450 
	C755.317078,524.388428 764.081177,524.704407 772.845459,524.990540 
	C784.272400,525.363647 795.702454,525.639038 807.129456,526.011353 
	C815.895630,526.296936 824.659973,526.956177 833.423462,526.927673 
	C844.688965,526.891052 855.964417,526.549561 867.214355,525.944580 
	C881.680237,525.166626 896.166443,524.395325 910.568481,522.896240 
	C928.938721,520.984070 947.237671,518.378174 965.560181,516.016296 
	C995.914185,512.103516 1026.026001,506.830200 1055.647339,499.077515 
	C1081.187256,492.393036 1106.723999,485.662872 1132.090210,478.355865 
	C1162.789307,469.512634 1192.584717,458.081268 1221.946289,445.503448 
	C1229.236450,442.380524 1237.139160,440.799927 1243.964233,445.726166 
	C1255.119385,453.777740 1252.164673,465.694672 1242.343506,472.823059 
	C1218.635010,490.030914 1193.746826,505.360901 1167.681641,518.821350 
	C1142.432983,531.860046 1116.432129,543.039612 1089.893188,553.175659 
	C1061.070557,564.183838 1031.661499,573.212952 1001.740784,580.453308 
	C981.225830,585.417664 960.397095,589.154968 939.614380,592.920776 
	C924.215027,595.711182 908.679260,597.774597 893.172119,599.930237 
	C887.964478,600.654175 882.651611,600.595215 877.400024,601.047058 
	C876.022705,601.165588 874.694580,601.856201 873.671936,602.642029 
	C831.645752,603.000000 789.291565,603.000000 746.468628,603.000000 
z"/>
<path fill="#FF9900" opacity="1.000000" stroke="none" 
	d="
M1226.641846,367.697632 
	C1235.514526,366.647217 1243.989624,365.635559 1252.493896,365.052856 
	C1260.904907,364.476532 1269.385864,363.649048 1277.765137,364.141235 
	C1295.660278,365.192413 1313.580688,366.496948 1330.628906,372.974335 
	C1339.696411,376.419525 1343.615967,381.569489 1344.016357,391.061493 
	C1345.286377,421.173340 1338.202637,449.705383 1327.761597,477.605957 
	C1320.432007,497.192169 1310.614990,515.474121 1297.912109,532.070496 
	C1290.463013,541.802734 1282.651367,551.350159 1272.258057,558.266113 
	C1270.817871,559.224487 1269.211670,560.550842 1267.658447,560.583923 
	C1265.052246,560.639404 1261.463745,560.655273 1260.065186,559.095154 
	C1258.491089,557.339355 1257.817627,553.459412 1258.605591,551.130371 
	C1262.022095,541.032532 1266.119751,531.165405 1269.960693,521.210876 
	C1278.945679,497.925293 1287.058228,474.335632 1291.780518,449.791656 
	C1293.262695,442.087646 1293.153687,433.961914 1292.861816,426.062866 
	C1292.535156,417.224854 1284.352051,410.563904 1272.041992,409.103638 
	C1259.819092,407.653778 1247.480835,405.993164 1235.230591,406.244720 
	C1218.331055,406.591766 1201.461548,408.587311 1184.588623,409.990204 
	C1173.796631,410.887482 1163.025269,412.028717 1152.237183,412.976105 
	C1148.973755,413.262665 1145.248291,412.824890 1144.822266,409.083344 
	C1144.504761,406.294983 1145.374390,402.050690 1147.324951,400.557587 
	C1155.012695,394.672943 1162.765747,388.263458 1171.553223,384.563507 
	C1185.963623,378.496155 1201.168701,374.293396 1216.110718,369.530548 
	C1219.335815,368.502533 1222.866943,368.434509 1226.641846,367.697632 
z"/>
</svg>