<?xml version="1.0" encoding="utf-8"?>
<!-- Generator: Adobe Illustrator 26.0.2, SVG Export Plug-In . SVG Version: 6.00 Build 0)  -->
<svg version="1.1" id="Layer_1" xmlns="http://www.w3.org/2000/svg" xmlns:xlink="http://www.w3.org/1999/xlink" x="0px" y="0px"
	 viewBox="0 0 512 132.7" style="enable-background:new 0 0 512 132.7;" xml:space="preserve">
<style type="text/css">
	.st0{fill:#873EFF;}
	.st1{fill-rule:evenodd;clip-rule:evenodd;fill:#873EFF;}
</style>
<g>
	<path class="st0" d="M65.3,132.7c15,0,26.9-7.4,36-24.4l20.1-37.7v31.9c0,18.8,12.2,30.1,31,30.1c14.8,0,25.7-6.5,36.2-24.4
		L235,30.1c10.2-17.2,3-30.1-19.4-30.1c-12,0-19.7,3.9-26.8,17l-31.9,60V23.6c0-15.9-7.6-23.6-21.6-23.6c-11.1,0-19.9,4.8-26.8,18.1
		L78.4,77V24.2c0-17-7-24.2-24-24.2H19.7C6.6,0,0,6.1,0,17.3s7,17.7,19.7,17.7H34v67.4C34,121.4,46.7,132.7,65.3,132.7z"/>
	<path class="st1" d="M302.7,0c-37.8,0-66.8,28.2-66.8,66.4c0,38.2,29.2,66.3,66.8,66.3s66.4-28.2,66.6-66.3
		C369.3,28.2,340.4,0,302.7,0z M302.7,91.9c-14.2,0-24-10.7-24-25.5s9.8-25.7,24-25.7s24,10.9,24,25.7S317.1,91.9,302.7,91.9z"/>
	<path class="st1" d="M378.7,66.4c0-38.2,29-66.4,66.6-66.4S512,28.4,512,66.4c0,38-29,66.3-66.6,66.3S378.7,104.7,378.7,66.4z
		 M421.6,66.4c0,14.8,9.4,25.5,23.8,25.5c14.2,0,24-10.7,24-25.5s-9.8-25.7-24-25.7S421.6,51.7,421.6,66.4z"/>
</g>
</svg>
